/* XPM */
static char * 002_rooftiles3bright_xpm[] = {
"64 64 256 2",
"  	c #000000",
". 	c #0000A8",
"+ 	c #00A800",
"@ 	c #00A8A8",
"# 	c #A80000",
"$ 	c #A800A8",
"% 	c #A85400",
"& 	c #4C4436",
"* 	c #545454",
"= 	c #5454FC",
"- 	c #524A42",
"; 	c #5E5246",
"> 	c #736352",
", 	c #685D4C",
"' 	c #FCFC54",
") 	c #FCFCFC",
"! 	c #ECECEC",
"~ 	c #DCDCDC",
"{ 	c #D0D0D0",
"] 	c #C0C0C0",
"^ 	c #B4B4B4",
"/ 	c #A8A8A8",
"( 	c #989898",
"_ 	c #8C8C8C",
": 	c #7C7C7C",
"< 	c #707070",
"[ 	c #646464",
"} 	c #545454",
"| 	c #484848",
"1 	c #383838",
"2 	c #2C2C2C",
"3 	c #202020",
"4 	c #FC0000",
"5 	c #EC0000",
"6 	c #E00000",
"7 	c #D40000",
"8 	c #C80000",
"9 	c #BC0000",
"0 	c #B00000",
"a 	c #A40000",
"b 	c #980000",
"c 	c #880000",
"d 	c #7C0000",
"e 	c #700000",
"f 	c #640000",
"g 	c #580000",
"h 	c #4C0000",
"i 	c #400000",
"j 	c #FCD8D8",
"k 	c #FCB8B8",
"l 	c #FC9C9C",
"m 	c #FC7C7C",
"n 	c #FC5C5C",
"o 	c #FC4040",
"p 	c #FC2020",
"q 	c #FC0000",
"r 	c #FCA85C",
"s 	c #FC9840",
"t 	c #FC8820",
"u 	c #FC7800",
"v 	c #E46C00",
"w 	c #CC6000",
"x 	c #B45400",
"y 	c #9C4C00",
"z 	c #FCFCD8",
"A 	c #FCFCB8",
"B 	c #FCFC9C",
"C 	c #FCFC7C",
"D 	c #FCF85C",
"E 	c #FCF440",
"F 	c #FCF420",
"G 	c #FCF400",
"H 	c #E4D800",
"I 	c #CCC400",
"J 	c #B4AC00",
"K 	c #9C9C00",
"L 	c #848400",
"M 	c #706C00",
"N 	c #585400",
"O 	c #404000",
"P 	c #849C7B",
"Q 	c #738C6B",
"R 	c #6B7B63",
"S 	c #637352",
"T 	c #5A6B52",
"U 	c #525A4A",
"V 	c #4A5242",
"W 	c #425239",
"X 	c #394A39",
"Y 	c #313931",
"Z 	c #313929",
"` 	c #293129",
" .	c #293121",
"..	c #212921",
"+.	c #182118",
"@.	c #181818",
"#.	c #00FC00",
"$.	c #00EC00",
"%.	c #00E000",
"&.	c #00D400",
"*.	c #04C800",
"=.	c #04BC00",
"-.	c #04B000",
";.	c #04A400",
">.	c #049800",
",.	c #048800",
"'.	c #047C00",
").	c #047000",
"!.	c #046400",
"~.	c #045800",
"{.	c #044C00",
"].	c #044000",
"^.	c #C8BFB2",
"/.	c #A89A85",
"(.	c #9A8C77",
"_.	c #7CFCF8",
":.	c #5CFCFC",
"<.	c #40FCFC",
"[.	c #20FCFC",
"}.	c #00FCFC",
"|.	c #00E4E4",
"1.	c #00CCCC",
"2.	c #00B4B4",
"3.	c #009C9C",
"4.	c #008484",
"5.	c #007070",
"6.	c #005858",
"7.	c #004040",
"8.	c #94846B",
"9.	c #8C7B67",
"0.	c #847B63",
"a.	c #81735D",
"b.	c #7B6B5A",
"c.	c #007CCC",
"d.	c #006CB4",
"e.	c #005C9C",
"f.	c #736B5A",
"g.	c #736B52",
"h.	c #9C9CFC",
"i.	c #7C80FC",
"j.	c #5C60FC",
"k.	c #4040FC",
"l.	c #2024FC",
"m.	c #0004FC",
"n.	c #0000FC",
"o.	c #0000EC",
"p.	c #0000E0",
"q.	c #0000D4",
"r.	c #0000C8",
"s.	c #0000BC",
"t.	c #0000B0",
"u.	c #0000A4",
"v.	c #000098",
"w.	c #000088",
"x.	c #00007C",
"y.	c #000070",
"z.	c #000064",
"A.	c #000058",
"B.	c #00004C",
"C.	c #000040",
"D.	c #282828",
"E.	c #FCE034",
"F.	c #FCD424",
"G.	c #FCCC18",
"H.	c #FCC008",
"I.	c #FCB400",
"J.	c #B420FC",
"K.	c #A800FC",
"L.	c #9800E4",
"M.	c #8000CC",
"N.	c #7400B4",
"O.	c #60009C",
"P.	c #500084",
"Q.	c #440070",
"R.	c #340058",
"S.	c #280040",
"T.	c #FCD8FC",
"U.	c #FCB8FC",
"V.	c #FC9CFC",
"W.	c #FC7CFC",
"X.	c #FC5CFC",
"Y.	c #FC40FC",
"Z.	c #FC20FC",
"`.	c #FC00FC",
" +	c #E000E4",
".+	c #C800CC",
"++	c #B400B4",
"@+	c #9C009C",
"#+	c #840084",
"$+	c #6C0070",
"%+	c #580058",
"&+	c #400040",
"*+	c #FCE8DC",
"=+	c #FCE0D0",
"-+	c #FCD8C4",
";+	c #FCD4BC",
">+	c #FCCCB0",
",+	c #FCC4A4",
"'+	c #FCBC9C",
")+	c #FCB890",
"!+	c #FCB080",
"~+	c #FCA470",
"{+	c #FC9C60",
"]+	c #F0945C",
"^+	c #E88C58",
"/+	c #DC8854",
"(+	c #D08050",
"_+	c #C87C4C",
":+	c #BC7848",
"<+	c #B47044",
"[+	c #A86840",
"}+	c #A0643C",
"|+	c #9C6038",
"1+	c #905C34",
"2+	c #885830",
"3+	c #80502C",
"4+	c #744C28",
"5+	c #6C4824",
"6+	c #5C4020",
"7+	c #543C1C",
"8+	c #483818",
"9+	c #403018",
"0+	c #382C14",
"a+	c #28200C",
"b+	c #600064",
"c+	c #006464",
"d+	c #006060",
"e+	c #00001C",
"f+	c #00002C",
"g+	c #302410",
"h+	c #480048",
"i+	c #500050",
"j+	c #000034",
"k+	c #1C1C1C",
"l+	c #4C4C4C",
"m+	c #5C5C5C",
"n+	c #404040",
"o+	c #303030",
"p+	c #343434",
"q+	c #2E2B22",
"r+	c #B8E8E8",
"s+	c #9CDCDC",
"t+	c #74C8C8",
"u+	c #48C0C0",
"v+	c #20B4B4",
"w+	c #20B0B0",
"x+	c #00A4A4",
"y+	c #009898",
"z+	c #008C8C",
"A+	c #008484",
"B+	c #007C7C",
"C+	c #007878",
"D+	c #007474",
"E+	c #007070",
"F+	c #006C6C",
"G+	c #980088",
"0+0+0+0+0+D.2 o+2 0+0+0+9+9+0+2 2 2 2 2 2 0+D.0+2 2 2 o+2 0+0+0+9+9+0+2 2 2 2 2 D.D.D.2 9+0+D.2 0+D.D.D.D.0+D.0+D.2 0+D.0+0+0+0+",
"0+0+0+9+0+D.2 2 2 0+0+0+0+2 2 D.2 o+2 2 2 0+0+0+2 2 2 2 2 0+0+0+0+2 2 D.2 o+2 0+0+2 D.0+0+D.D.2 2 2 D.D.D.D.D.0+D.2 2 0+0+0+0+0+",
"D.2 0+9+0+0+2 0+9+0+0+0+2 2 2 2 o+o+9+0+0+0+0+0+2 p+2 0+9+0+0+0+2 2 2 2 o+o+9+9+9+o+2 0+0+D.D.0+2 2 2 D.D.D.0+0+2 0+2 0+D.D.D.D.",
"D.2 9+9+0+9+9+9+9+9+0+0+2 2 2 0+2 9+9+9+2 0+0+0+2 o+9+9+9+9+0+0+2 2 2 0+2 9+9+9+9+o+9+0+0+0+0+0+2 2 2 D.D.D.0+D.D.0+2 D.D.D.D.D.",
"2 0+2 2 0+9+0+0+0+0+0+D.D.g+g+g+g+g+0+2 D.g+g+g+3 0+0+0+0+0+0+D.D.g+g+g+g+g+0+0+3 3 g+g+g+a+a+g+g+0+0+0+D.3 3 3 3 2 D.D.D.D.D.D.",
"2 2 2 2 D.a+a+a+a+a+a+k+k+k+a+k+k+k+a+a+k+k+k+a+k+a+a+a+a+a+a+k+k+k+a+k+k+k+a+a+k+k+a+a+k+k+k+k+a+a+a+a+a+a+k+k+k+8+2 D.2 2 2 2 ",
"2 2 0+0+0+3 < * * * * * * * * * * * * * | | | | | * * * * * | | * * * * * * * * | | * * * [ < : < < < < [ [ < < : 1 o+2 2 2 2 2 ",
"D.0+9+9+0+D.[ * * * * * * * * * * * | | | * * * [ [ [ * * * | * * * * | | | | | | | | | * * | * | | | | | | | [ < 7+o+2 0+D.D.D.",
"D.0+9+9+0+p+[ * < < < < < : : : < [ [ < < < < < < [ [ [ [ < < : _ : < [ [ < : < [ [ < < < < [ [ [ [ [ [ [ [ < : _ 9+2 D.0+D.D.D.",
"0+9+9+9+0+2 [ * _ _ : : _ _ ( _ : < : _ _ : < < < [ < < : _ _ _ : < : : : _ _ < < : _ _ _ : : : : : : : : : _ / / 2 D.D.0+0+D.D.",
"2 9+9+9+0+o+[ * : _ < < _ ( _ : [ [ : _ : [ [ < : : : _ _ ( : < < < < _ _ _ : < : _ ( _ : : : : : _ _ _ : : : / ( 0+D.0+0+D.D.D.",
"2 9+9+9+0+2 [ * [ < < < _ : [ [ * [ < < [ [ [ : : : : : _ _ : < < < : _ : < [ < _ ( _ < < : : ( ( _ _ _ : _ _ / / 7+2 D.D.D.D.D.",
"0+2 2 2 3 D.[ | [ < < < < [ [ [ [ [ < < [ < : : < < < < : _ _ _ _ _ _ : [ [ [ < : : [ [ [ _ ( ( _ : : _ < : : / / 7+9+D.D.D.0+0+",
"0+0+0+0+g+3 * * : _ _ : < [ < : : : : : : : : : < < < : : _ : < : : < [ [ [ < _ _ : [ [ : _ / ( < < < : [ [ < ( / 8+9+2 2 2 0+0+",
"0+0+0+0+g+D.[ [ _ _ : : < < _ _ _ : : _ _ _ : : < : : _ _ ( _ < [ [ [ [ < : _ _ _ : [ < < : : : [ [ [ [ [ [ : / / 8+9+2 2 2 0+2 ",
"0+0+0+0+g+3 [ * < < [ < : : _ : < < < : : : < < < : : : _ ( _ : [ [ : : : : _ : < [ [ < < < [ [ [ [ < < < < _ ] / 8+9+2 2 2 0+2 ",
"0+2 2 2 D.3 * | [ [ [ < < < < < [ [ [ < < [ [ < < : : < : : < [ [ < _ _ : : : < < < < : : : < [ < < : : : : _ ^ ( 7+9+2 0+0+2 0+",
"0+0+o+9+2 3 * | * [ < < < [ [ [ [ [ < < < < < < : : : < : : < [ [ < : < < _ _ _ _ _ _ _ _ : : : : : < < < < : / / 1 2 0+0+0+0+0+",
"0+9+9+9+0+3 [ | [ < : < < < < : < < < < : : : : : : < < : _ : _ _ _ : < < _ _ : < : : : _ : : : < < < < < < : ^ ^ D.0+0+0+0+0+0+",
"0+9+9+9+g+3 [ | [ : _ : : : _ _ : : : : : : : : : : < : _ _ _ ( ( _ < : : : < < [ < < : _ _ : : : : < : : : _ ^ ] 0+0+0+0+0+0+0+",
"0+0+0+0+g+3 [ | [ : : < : : : : < : : : : : : : : : : : : : : : _ < [ < : < < [ [ < _ ( _ : : _ : : : : : : _ ^ ] 9+0+0+0+0+0+0+",
"0+0+0+0+g+3 * | [ < < < < < < < < < : : : : : : : : : : : : : : [ [ [ [ < < < < < : _ _ : < < : : : : _ _ _ _ ^ ] 7+9+0+2 9+0+0+",
"2 2 0+0+g+3 * | [ < < < < : < < < : : < < < : < < < : : : : _ : [ [ [ < : : : _ _ _ _ : [ * [ < < < : : : : : ^ ] 7+9+9+o+o+2 2 ",
"2 2 9+2 g+3 [ * [ < < : : : < < < < < < < < < < < < : : : _ _ < [ [ < _ _ : : _ ( ( _ < * [ [ < < < : < [ < : ^ ] 1 o+9+9+9+2 2 ",
"9+2 2 2 0+o+[ | [ < < : : < : : : < < < : : : < : : : : : : _ < [ < _ _ : < < : ( _ < [ * < < < < < < [ [ < _ ] ] 1 o+0+9+9+9+9+",
"9+0+2 2 0+2 * | [ < : : : : : : < < : : _ _ _ : _ : : _ : : < [ [ < _ _ : < : : _ < [ [ [ < : : : < < [ [ < ( ] ] 9+2 9+9+9+9+9+",
"9+0+0+0+3 D.[ | [ < : : : : : : < < : : : _ < < : : : : < < < < < : _ : : < : : : < < : < < : : < < < < < : ( ] ^ 2 D.9+9+9+9+9+",
"9+9+0+2 g+3 [ | [ < < < < : : : < < : : < < [ [ : : < < : : < < : : : : _ _ _ _ : < _ : [ [ : < < < < : : _ ( ] ^ 0+D.9+o+2 0+0+",
"0+9+0+2 g+D.[ | * [ < < < < < < < : : : : : < < : : : : : : < : _ _ _ _ _ ( _ _ : : _ < [ [ < : : : : : : : _ ] ] 7+2 2 2 0+0+0+",
"9+9+9+0+g+3 [ | * [ < < < < : : : : : : : : : < < < : : < < : : _ ( ( _ : : < < < < : < [ : < : : : : : : : ( ] ] 7+9+0+2 2 0+0+",
"9+9+9+0+D.3 [ | * < : : : : : : : : : < < < : : : : < < < < _ : : ( _ [ [ [ [ < : : : : : : < : < < : : _ _ ( ] ^ 8+9+2 2 2 9+2 ",
"9+9+9+9+2 3 [ | * < : : : : : : : : < < : : : _ _ : < < < _ ( : : _ < * [ < < _ ( _ _ _ _ : < < < : _ _ : : _ ^ ^ 8+9+2 2 2 2 2 ",
"2 2 2 2 0+3 * | * [ < : : : : : < < < : _ _ : : : : : : _ ( / ( _ _ < * [ < < _ / ( _ _ < [ [ < : : : < [ < : ] ^ 8+9+2 D.0+2 2 ",
"0+0+0+0+g+3 * | * < : : : : _ : < < : : : : : : : : _ : : ( ( ( _ < [ [ < : < : _ _ < [ [ [ < : : : : < < < _ ] ] 7+9+0+0+0+0+0+",
"0+0+0+0+g+3 [ | * < : : _ _ _ : < : : : _ _ : : : _ _ : : _ _ < [ [ [ [ < < < : : < * * [ : : : < < < < : : _ ] ] 1 2 0+0+9+9+9+",
"0+0+0+0+g+3 [ | * < : : ( ( _ < < : _ _ _ : < < : _ : < < : < [ [ [ [ < < < : _ : < [ [ : _ : < < < < < < : ( ] ] D.0+9+9+9+9+9+",
"9+0+D.D.g+3 * | [ < < : _ _ < < < : : : < < < < < < < < < : : : < < : : : : : _ : : < < : : : : : : : : : : / ] ^ 0+0+9+9+9+9+9+",
"9+0+0+0+g+k+* | [ : : : : < < < : < < < < < : : : < < : : : : : : _ _ : < : : : : < < : : : : : : : _ : < : / ] / 9+0+9+9+9+9+9+",
"0+0+0+0+a+3 * | [ : _ _ : : : : < : _ : : : _ : : : _ _ _ : < < < : : : : : : _ : < < : _ _ : _ : : < < < : / ] / 7+8+9+p+o+9+9+",
"2 D.D.D.k+k+[ | [ < : : < : _ _ < _ _ : : _ _ _ _ _ : _ : [ [ < < : : : : : : _ : < : ( ( ( : : < < < < : : ( ] / 7+9+9+o+2 2 2 ",
"0+D.D.D.3 3 [ | [ : < < < : : < < < < < < : _ _ _ : < < < [ [ : : : _ : : : : : < < _ / / _ < [ [ < : : : : _ ] ^ 1 2 2 0+0+0+0+",
"0+D.D.D.3 3 [ | [ : : : _ : < < < : : < < _ _ : < [ [ [ < < : _ : : _ : : : < < < < _ ( _ < [ [ [ : : < < < _ ] ] 7+0+0+0+0+0+0+",
"0+0+2 2 D.k+[ | [ : : _ _ _ : _ _ _ _ _ : _ : [ [ [ [ < : : : _ _ : ( _ : : < < : : : : : < : : : < : < [ [ _ ] ] 0+0+0+0+0+0+0+",
"2 2 2 2 D.k+* | * : : : : < < : _ : : : < < < [ [ < < : _ : : _ : : ( ( _ _ : : < < < < < : _ _ _ : _ _ : : ( ] ] 1 0+0+0+2 2 2 ",
"2 2 D.D.3 k+* | * < < < [ [ [ < < [ [ [ [ [ < < < : : : _ _ _ _ _ : _ _ < < [ < [ < < < < : : : : < : _ < : ( ] ] | o+2 0+9+o+9+",
"9+0+D.D.3 k+* | [ : : : < < < < < < < < < < : : _ _ _ : : _ _ _ _ : < < [ [ [ [ : _ _ _ : < < : < < : : < : ( ] ] 2 2 2 9+9+9+9+",
"9+0+D.D.3 k+* | [ : _ : : : : < < : : : _ _ : _ _ ( _ : < : < < < [ [ < [ < < < : _ _ _ : : : _ : < _ ( _ _ ( ] ^ 2 2 2 o+9+9+9+",
"0+0+D.D.3 k+* | [ : _ : : : : < : : : : _ _ : ( / ( _ < < : < [ [ [ < : : : < < _ _ _ : < : _ _ : : ( / ( _ ( ] ^ 8+9+2 o+2 0+0+",
"0+0+D.D.D.k+* | [ : : < < : : < : : : : : : : _ ( _ : < < _ _ : < < : _ : : : : : _ _ : _ ( ( ( _ ( _ _ _ < _ ] / 1 9+2 2 0+0+0+",
"0+0+0+0+0+k+* | [ < < [ [ [ [ < < < : : < : < : : : : : : : : _ : : : : : < < < [ [ < : _ _ : _ ( _ < < : [ : ] ( 1 9+0+2 2 0+0+",
"9+0+0+0+0+k+* | [ < < < < < < < < < < : < : < < : : _ _ : : : : < : : : : : : : [ [ [ < : [ [ _ _ < [ < _ < _ ] ( 7+9+2 2 2 9+2 ",
"2 2 0+2 0+k+* | [ < < : : : : < : : : : : : < < < < : : < < < < < : : : < : : : < < < < : [ [ : < * * < : < ( ] _ 0+0+2 2 2 2 2 ",
"2 2 0+2 g+k+* * [ < < < : < < : : : : < < : < < : : : < [ [ < < _ _ _ : : : : : : : : _ _ : [ : < [ [ : : < ( ] ( 0+0+0+0+0+2 2 ",
"0+0+2 0+g+k+* | [ < : : : : : : : : < < : : < < : : : : : < < : ( ( ( _ : : _ : : : : : ( : [ < : : : _ < : / ] / 0+0+0+0+0+0+0+",
"0+0+0+0+a+k+* * [ : _ _ _ _ _ _ _ : : : _ _ _ : : : : : _ _ : _ / _ _ : : _ _ _ : _ _ ( / _ : : _ _ : < < : / ^ / 8+9+0+0+9+9+9+",
"0+0+0+0+a+k+* [ _ ( ( / / / / / / / / / / / / / / / ( / / / / / / _ < : _ ( / / ( / ^ ^ ^ ^ / ^ ] ] ^ / / / ^ ^ ( 8+0+2 9+9+9+9+",
"9+0+0+0+g+k+[ : ( / / / / / ( ( / / / / / / ^ ^ ^ ^ ^ ^ ^ ^ / / ( ( ( ( ( ( / / / / / / / / / / ^ ] ] ^ ] ] ] ] ( 0+0+D.2 9+9+9+",
"9+0+0+0+D.D.2 0+8+8+0+0+0+7+1 1 8+2 2 | 1 0+7+1 7+7+7+7+8+7+1 | 1 7+1 1 1 7+8+1 1 7+7+9+0+D.1 7+8+8+8+7+7+0+2 9+7+2 0+0+o+9+9+9+",
"9+9+0+9+0+9+0+0+0+9+0+0+0+9+9+9+9+2 2 o+0+0+0+2 9+8+8+9+9+9+o+p+9+9+9+9+9+9+9+o+o+9+9+0+0+0+2 9+9+9+9+9+2 D.D.2 o+o+9+9+p+o+9+9+",
"2 2 2 2 0+D.0+D.2 2 0+0+0+D.0+2 o+2 2 2 0+0+0+2 o+9+9+9+9+0+0+2 2 2 0+2 9+9+9+9+o+9+0+0+0+0+0+2 2 2 D.D.D.0+D.D.2 o+9+0+2 2 2 2 ",
"0+0+2 2 0+D.0+2 2 2 D.0+0+D.2 o+o+2 2 2 0+0+0+2 p+2 0+9+0+0+0+2 2 2 2 o+o+9+9+9+o+2 0+0+D.D.0+2 2 2 D.D.D.0+0+2 2 o+2 0+0+0+0+0+",
"0+0+9+0+0+0+D.D.D.D.0+0+0+0+D.2 2 D.D.D.0+0+0+2 2 2 2 2 0+0+0+0+2 2 D.2 o+2 0+0+2 D.0+0+D.D.2 2 2 D.D.D.D.D.0+D.D.2 D.0+0+0+0+0+",
"0+9+9+0+0+9+D.D.D.0+0+0+0+9+2 2 2 0+D.D.0+0+0+2 2 2 2 2 0+0+0+9+2 0+2 2 9+2 2 D.D.D.2 0+0+D.2 0+D.0+D.D.D.0+0+D.D.D.D.9+0+0+0+0+",
"2 9+9+0+0+9+D.D.2 0+9+0+0+9+0+2 9+0+0+D.0+0+0+2 2 2 2 D.D.0+D.2 2 9+0+2 9+9+2 D.D.2 2 2 D.D.2 0+2 0+0+D.D.0+0+D.0+D.2 9+2 2 2 2 "};
