/* XPM */
static char * 034_stonemould_xpm[] = {
"64 64 256 2",
"  	c #000000",
". 	c #0000A8",
"+ 	c #00A800",
"@ 	c #00A8A8",
"# 	c #A80000",
"$ 	c #A800A8",
"% 	c #A85400",
"& 	c #A8A8A8",
"* 	c #545454",
"= 	c #5454FC",
"- 	c #54FC54",
"; 	c #54FCFC",
"> 	c #FC5454",
", 	c #FC54FC",
"' 	c #FCFC54",
") 	c #FCFCFC",
"! 	c #ECECEC",
"~ 	c #DCDCDC",
"{ 	c #D0D0D0",
"] 	c #C0C0C0",
"^ 	c #B4B4B4",
"/ 	c #A8A8A8",
"( 	c #989898",
"_ 	c #8C8C8C",
": 	c #7C7C7C",
"< 	c #707070",
"[ 	c #646464",
"} 	c #545454",
"| 	c #484848",
"1 	c #383838",
"2 	c #2C2C2C",
"3 	c #202020",
"4 	c #FC0000",
"5 	c #EC0000",
"6 	c #E00000",
"7 	c #D40000",
"8 	c #C80000",
"9 	c #BC0000",
"0 	c #B00000",
"a 	c #A40000",
"b 	c #980000",
"c 	c #880000",
"d 	c #7C0000",
"e 	c #700000",
"f 	c #640000",
"g 	c #580000",
"h 	c #4C0000",
"i 	c #400000",
"j 	c #FCD8D8",
"k 	c #FCB8B8",
"l 	c #FC9C9C",
"m 	c #FC7C7C",
"n 	c #FC5C5C",
"o 	c #FC4040",
"p 	c #FC2020",
"q 	c #FC0000",
"r 	c #FCA85C",
"s 	c #FC9840",
"t 	c #FC8820",
"u 	c #FC7800",
"v 	c #E46C00",
"w 	c #CC6000",
"x 	c #B45400",
"y 	c #9C4C00",
"z 	c #FCFCD8",
"A 	c #FCFCB8",
"B 	c #FCFC9C",
"C 	c #FCFC7C",
"D 	c #FCF85C",
"E 	c #FCF440",
"F 	c #FCF420",
"G 	c #FCF400",
"H 	c #E4D800",
"I 	c #CCC400",
"J 	c #B4AC00",
"K 	c #9C9C00",
"L 	c #848400",
"M 	c #706C00",
"N 	c #585400",
"O 	c #404000",
"P 	c #D0FC5C",
"Q 	c #C4FC40",
"R 	c #B4FC20",
"S 	c #A0FC00",
"T 	c #90E400",
"U 	c #80CC00",
"V 	c #74B400",
"W 	c #609C00",
"X 	c #D8FCD8",
"Y 	c #BCFCB8",
"Z 	c #9CFC9C",
"` 	c #80FC7C",
" .	c #60FC5C",
"..	c #40FC40",
"+.	c #20FC20",
"@.	c #00FC00",
"#.	c #00FC00",
"$.	c #00EC00",
"%.	c #00E000",
"&.	c #00D400",
"*.	c #04C800",
"=.	c #04BC00",
"-.	c #04B000",
";.	c #04A400",
">.	c #049800",
",.	c #048800",
"'.	c #047C00",
").	c #047000",
"!.	c #046400",
"~.	c #045800",
"{.	c #044C00",
"].	c #044000",
"^.	c #D8FCFC",
"/.	c #B8FCFC",
"(.	c #9CFCFC",
"_.	c #7CFCF8",
":.	c #5CFCFC",
"<.	c #40FCFC",
"[.	c #20FCFC",
"}.	c #00FCFC",
"|.	c #00E4E4",
"1.	c #00CCCC",
"2.	c #00B4B4",
"3.	c #009C9C",
"4.	c #008484",
"5.	c #007070",
"6.	c #005858",
"7.	c #004040",
"8.	c #5CBCFC",
"9.	c #40B0FC",
"0.	c #20A8FC",
"a.	c #009CFC",
"b.	c #008CE4",
"c.	c #007CCC",
"d.	c #006CB4",
"e.	c #005C9C",
"f.	c #D8D8FC",
"g.	c #B8BCFC",
"h.	c #9C9CFC",
"i.	c #7C80FC",
"j.	c #5C60FC",
"k.	c #4040FC",
"l.	c #2024FC",
"m.	c #0004FC",
"n.	c #0000FC",
"o.	c #0000EC",
"p.	c #0000E0",
"q.	c #0000D4",
"r.	c #0000C8",
"s.	c #0000BC",
"t.	c #0000B0",
"u.	c #0000A4",
"v.	c #000098",
"w.	c #000088",
"x.	c #00007C",
"y.	c #000070",
"z.	c #000064",
"A.	c #000058",
"B.	c #00004C",
"C.	c #000040",
"D.	c #282828",
"E.	c #FCE034",
"F.	c #FCD424",
"G.	c #FCCC18",
"H.	c #FCC008",
"I.	c #FCB400",
"J.	c #B420FC",
"K.	c #A800FC",
"L.	c #9800E4",
"M.	c #8000CC",
"N.	c #7400B4",
"O.	c #60009C",
"P.	c #500084",
"Q.	c #440070",
"R.	c #340058",
"S.	c #280040",
"T.	c #FCD8FC",
"U.	c #FCB8FC",
"V.	c #FC9CFC",
"W.	c #FC7CFC",
"X.	c #FC5CFC",
"Y.	c #FC40FC",
"Z.	c #FC20FC",
"`.	c #FC00FC",
" +	c #E000E4",
".+	c #C800CC",
"++	c #B400B4",
"@+	c #9C009C",
"#+	c #840084",
"$+	c #6C0070",
"%+	c #580058",
"&+	c #400040",
"*+	c #FCE8DC",
"=+	c #FCE0D0",
"-+	c #FCD8C4",
";+	c #FCD4BC",
">+	c #FCCCB0",
",+	c #FCC4A4",
"'+	c #FCBC9C",
")+	c #FCB890",
"!+	c #FCB080",
"~+	c #FCA470",
"{+	c #FC9C60",
"]+	c #F0945C",
"^+	c #E88C58",
"/+	c #DC8854",
"(+	c #D08050",
"_+	c #C87C4C",
":+	c #BC7848",
"<+	c #B47044",
"[+	c #A86840",
"}+	c #A0643C",
"|+	c #9C6038",
"1+	c #905C34",
"2+	c #885830",
"3+	c #80502C",
"4+	c #744C28",
"5+	c #6C4824",
"6+	c #5C4020",
"7+	c #543C1C",
"8+	c #483818",
"9+	c #403018",
"0+	c #382C14",
"a+	c #28200C",
"b+	c #600064",
"c+	c #006464",
"d+	c #006060",
"e+	c #00001C",
"f+	c #00002C",
"g+	c #302410",
"h+	c #480048",
"i+	c #500050",
"j+	c #000034",
"k+	c #1C1C1C",
"l+	c #4C4C4C",
"m+	c #5C5C5C",
"n+	c #404040",
"o+	c #303030",
"p+	c #343434",
"q+	c #D8F4F4",
"r+	c #B8E8E8",
"s+	c #9CDCDC",
"t+	c #74C8C8",
"u+	c #48C0C0",
"v+	c #20B4B4",
"w+	c #20B0B0",
"x+	c #00A4A4",
"y+	c #009898",
"z+	c #008C8C",
"A+	c #008484",
"B+	c #007C7C",
"C+	c #007878",
"D+	c #007474",
"E+	c #007070",
"F+	c #006C6C",
"G+	c #980088",
"].].].].].].].].].].{.].].].].].].].].].].{.{.{.].].].].].D.o+o+o+D.].].].].].].].].{.].].3 ].].].3 ].].].].].].].].].].].].].].",
"].~.1 ~.D.o+o+].].].{.].{.{.{.].].].].{.{.{.{.{.].].~.p+p+p+n+n+1 o+].].{.].].{.{.].{.].].].].].].].].{.{.{.].].].].{.p+D.].{.].",
"1 1 | p+n+n+n+].].].{.{.{.{.{.].].].{.{.~.~.{.{.{.{.1 1 n+1 | l+1 1 ].].].D.p+n+p+D.].].].].].].].].].o+D.D.D.o+o+D.p+1 o+~.{.].",
"| l+* l+| l+* ].].].].o+| | | D.].].{.p+l+l+1 o+D.o+1 * l+m+m+* n+1 ].].{.p+| l+n+1 o+].].].{.].].D.p+1 1 1 1 n+2 1 | n+| * n+{.",
"| | m+| l+| 1 ].].].].p+| n+n+].].].{.o+n+* | D.].o+* * | l+| | | 1 ].].{.1 p+l+l+l+1 D.].].].].o+p+p+| 1 p+p+1 1 n+| | l+* ~.{.",
"1 n+| n+| | n+{.].].].D.1 1 n+].3 ].{.p+1 l+n+o+D.p+* | | l+l+| l+n+].].{.1 n+| l+| n+D.].].].D.o+D.o+p+D.n+p+1 n+| | l+* * | {.",
"o+D.D.2 l+1 p+D.].D.D.p+1 1 1 ].].D.1 | * | n+| l+l+m+n+* l+n+l+m+l+].].{.n+p+l+* l+l+1 2 ].].o+1 o+D.o+o+1 p+p+| l+l+l+l+m+n+p+",
"o+].].p+| 1 n+o+D.].D.1 | n+n+D.].o+n+* l+| n+l+| | * | | 1 l+m+* p+].].{.1 | l+* m+l+p+].].D.D.o+].].D.D.o+p+| * | | * * m+n+p+",
"D.].D.n+| | l+].].].].1 n+n+1 D.].o+1 1 p+p+p+1 p+o+n+1 p+D.1 n+p+{.].].1 | l+l+* l+1 D.].].].].].{.].].].].{.* | * m+* m+* 1 o+",
"].].D.o+D.D.].].].].].o+o+o+2 ].].].{.].].].].].].{.].].3 ].].{.].{.{.~.1 * * 1 | p+{.{.{.{.].].{.{.{.].].].].~.* | | 1 | p+D.].",
"].].].].].].].].].].].{.{.].].].].].].].].].].].].{.].].].].].{.].].].{.{.1 o+D.o+].{.].].].{.{.{.{.{.{.].].].{.~.~.{.o+D.].].3 ",
"].].].].].].].].].].].].].].].3 ].].].].].].].].].].].].].{.~.{.].].].].{.{.].].].].{.].].].{.{.{.].].].].].].].].].].].D.].].3 ",
"].].].].].].].].].].].].].].].].].].].].p+p+n+n+1 p+2 2 1 | | p+].].].{.].].].].D.D.D.].].].].].].].o+o+o+o+{.{.].].{.].o+o+].].",
"o+p+p+o+o+o+D.].D.].D.~.p+{.].].].].].p+1 1 | | 1 p+2 p+| m+m+n+].].].{.{.].].].1 n+| D.o+D.D.p+1 1 1 1 p+n+p+{.].].{.{.n+p+1 p+",
"| | | | | l+p+p+1 1 n+n+n+D.].].].].p+n+1 n+| | 1 p+1 1 | m+m+p+D.D.{.{.].].].].1 | 1 1 n+1 1 n+| n+n+| l+l+n+{.].].{.{.n+1 p+p+",
"n+n+n+n+| l+1 | n+1 n+| l+o+].].D.n+| | l+p+l+| 1 1 | n+| * | 2 D.D.].].].].].D.| | n+1 1 p+1 * * n+| l+m+* n+].].].].D.| n+1 1 ",
"1 n+1 p+n+1 n+1 p+p+1 | 1 ].].].D.n+| | n+| l+l+n+n+n+* | * n+2 ].].].].].].].D.| n+n+1 p+p+l+| | 1 n+* m+* n+].].].].o+| n+1 p+",
"1 n+1 1 n+n+| n+1 p+n+1 2 ].].D.p+| l+| | l+| * | n+l+l+l+l+n+2 ].].{.].].].{.D.| l+n+n+p+1 | | | n+| * m+m+p+].].].].D.| 1 1 p+",
"1 1 n+| n+| | l+l+| * * 1 ].].o+1 n+| | | * l+l+n+n+1 p+p+o+D.].{.{.{.].].].].D.l+l+1 1 1 1 l+n+| l+l+n+m+m+p+].].].].n+n+n+p+p+",
"n+n+| l+l+| | * | l+* * p+].].{.].1 1 n+| * | n+1 ].].].].].].].].].].].].].2 2 n+1 n+n+| * m+* * m+l+m+m+m+~.].].].o+n+| l+1 1 ",
"n+n+| l+m+l+| | n+| | l+o+].].].].D.].].o+{.{.].{.{.].].].].].].].].].].].].].].p+n+n+].o+n+1 1 1 ~.~.1 1 1 {.].].].{.p+p+n+p+2 ",
"].].D.o+{.{.].].].].].].].3 ].].].].].].].].].].].].].{.].].].].].].].].].].].].].].].].].].D.].].].].].].].].].].].].].].].].3 ",
"].].].].{.{.].].].].].].].].].].].].].].].{.].].].{.].{.{.{.{.{.D.D.2 ].{.].].].].].D.].].].o+].].].].].].].].{.{.o+D.].].].].].",
"{.{.].].{.{.].].].].].].].].].{.].].].].{.{.{.].].].].].{.{.{.~.n+n+2 1 1 {.].].].].o+o+D.o+p+p+{.{.].].].].].{.1 p+o+].].D.].].",
"D.{.].].{.{.{.].].].].].].].].].].].].].{.~.~.].].3 ].o+p+n+1 n+1 n+1 n+1 o+D.].].o+1 | 1 n+* l+n+1 {.{.].].{.p+| | n+1 p+1 p+n+",
"1 l+p+].{.{.{.{.].].].].].].2 D.].].3 ].o+1 {.].].].1 | | | l+1 n+1 | l+1 p+].].o+n+1 | 1 | 1 n+n+n+n+| o+].o+l+| n+1 n+n+1 1 n+",
"| * ~.].{.{.{.D.p+p+1 p+p+p+p+o+].].].1 * m+~.].].D.1 | l+l+l+n+n+l+* m+n+p+].].p+n+n+n+l+l+l+n+| l+m+| o+].p+* * n+n+| | | n+n+",
"| l+~.].{.{.~.p+n+p+p+1 1 1 n+1 p+n+| l+m+* ~.].].].o+| l+* * | 1 * | * * | p+o+p+1 | l+| l+l+* * m+m+m+1 D.1 * | 1 | 1 | * l+l+",
"l+* 1 {.{.D.p+1 l+1 n+l+l+n+l+| * m+* 1 | n+{.].].].1 | * * l+| * m+l+l+* | D.p+n+* * l+n+l+m+m+m+m+m+m+1 o+p+l+| | | n+l+m+l+1 ",
"m+m+~.].{.1 1 | n+n+n+* | n+* m+l+m+| n+o+~.{.].].D.| | * m+m+* m+* | n+| D.D.D.1 | m+n+1 p+* m+m+m+m+* D.D.o+l+| | 1 1 | * | | ",
"m+l+].].].2 2 p+p+p+1 n+| n+l+l+n+p+D.D.D.].{.].{.p+* n+m+m+* | | 1 ~.{.].].].{.{.o+| o+o+1 1 n+n+| l+n+].].].].o+D.D.].{.o+n+1 ",
"p+o+].].].].].].].].].{.{.{.~.{.{.{.{.].].].].].{.].1 1 | 1 p+n+{.].{.].].].].{.].{.{.].].].].D.o+].].].{.{.{.].].].].].].].].].",
"].].{.{.].].3 ].].].].].].].].].].].].].].].].].].].].].].].D.].].].].].].].].].].].{.].].].].].].].].].{.{.{.].].].].].].].].].",
"].].{.{.{.].].].].].].].].{.].].].{.{.{.{.].].].3 3 ].].].].].].].].].o+{.{.{.].].].{.{.].].].].{.].].].].{.].].p+o+o+].D.].].].",
"].].].].{.{.].].].].].].p+].].].].o+~.p+o+].D.].].].].].D.o+].].].].D.1 o+o+{.].].].{.{.{.].].].{.].{.D.].{.].D.| n+1 n+1 D.p+p+",
"p+].{.].].].].p+{.{.].].o+1 1 1 1 1 n+| | n+n+n+1 1 D.o+p+n+p+].].].p+1 o+p+o+D.D.].D.D.{.].].{.].1 n+n+].].].1 | n+1 n+n+1 n+| ",
"l+1 1 {.].{.p+o+~.{.{.].1 l+n+1 n+1 1 n+1 p+n+| n+n+1 n+l+| p+{.].].p+1 1 1 n+p+p+p+p+o+D.{.].{.D.| l+n+].].].1 n+p+1 1 1 1 l+l+",
"| n+| p+{.~.p+p+~.{.{.].n+| 1 n+p+n+n+1 p+1 n+l+n+n+| | | | 1 D.].].1 1 n+n+1 1 n+n+l+p+D.{.{.{.D.p+n+1 ].3 ].n+1 p+n+n+n+| | l+",
"1 o+1 l+| * 1 p+~.{.{.].D.o+1 o+o+p+n+| p+1 n+l+l+l+* | | l+| o+].D.n+n+1 p+1 | | l+l+p+p+{.{.{.{.p+| 1 ].3 D.1 p+p+n+n+n+n+n+l+",
"p+o+p+l+m+m+l+| ~.{.].].p+n+1 p+1 o+p+1 p+D.1 * | l+* | l+* 1 o+D.].o+1 1 1 n+n+n+l+* * * ~.{.{.{.o+n+1 3 3 ].D.p+1 p+n+| | n+l+",
"o+D.o+1 | n+l+n+~.{.{.].o+p+1 o+o+p+o+o+p+o+1 1 1 | n+n+n+n+].~.{.].].].].].2 2 2 p+n+| n+p+].].].].].].].].].].].].].].].].].D.",
"].].D.o+o+D.].{.].].].].].].].].].].].].].D.D.o+D.D.D.D.].{.{.{.].].{.{.{.{.{.{.{.{.].].].{.].].].3 ].].].].].].].].].].3 3 3 ].",
"].D.D.o+D.D.].{.].].].].].].].].].].].].].].].].].D.D.o+{.{.].].~.].{.{.{.{.].].].].].].].].].].].3 ].].{.{.].].].{.{.{.].].].].",
"o+p+1 p+o+].D.{.].{.].o+o+o+D.].3 3 ].].].D.].D.D.o+o+1 1 1 p+n+1 D.].].].].D.D.D.].].].3 ].].].3 ].].].].{.{.].{.{.{.~.].].D.p+",
"o+1 1 | l+n+1 {.{.{.D.p+o+p+1 ].3 ].2 1 | | 1 n+n+n+l+l+* m+l+* | 1 ].].D.1 n+n+1 D.o+].3 ].].].3 ].2 D.D.D.].].].].{.~.].{.o+1 ",
"o+n+* l+| l+n+{.{.{.D.p+1 | n+].].].].1 l+l+n+p+1 n+l+l+* * m+m+l+p+].].D.n+n+| | | 1 ].].].].].].p+p+o+o+o+].].].D.n+p+p+1 | | ",
"1 l+l+| n+| 1 {.{.{.D.p+1 n+| ].].].p+n+m+l+1 2 1 n+l+| l+l+| | l+p+].].D.n+1 * * l+1 D.].].{.].].1 p+D.D.o+].].D.o+n+n+n+| | l+",
"n+1 | | n+n+p+].].].D.o+p+| l+].].].p+n+| * p+2 1 1 l+l+| n+l+| l+p+].].o+1 n+* l+| | o+].{.{.{.D.n+p+p+1 p+].].o+n+| n+| * l+| ",
"| n+1 n+n+1 p+].].].2 1 p+n+1 ].].D.n+* * l+n+p+n+| | l+| | 1 | | p+].].D.p+1 1 | | | p+].{.{.{.p+1 2 2 p+p+].].{.1 | | | * l+| ",
"| 1 1 n+1 p+p+n+1 p+2 p+1 * | ].].o+| | | l+| * | | * l+l+n+n+| * p+].].D.1 | l+l+* | {.].].{.{.1 p+2 p+p+p+].].{.n+| | * * * * ",
"n+1 1 | n+| n+n+p+p+p+1 | * * ].].o+n+| l+1 n+| n+* m+* | n+l+| 1 ].].].D.n+n+l+m+* p+].].].].].].2 2 p+2 ].].].~.n+n+l+m+* l+| ",
"1 p+1 n+n+| n+p+p+p+1 n+| | | ].].].o+n+n+1 p+1 1 1 n+1 1 D.o+o+].].].].p+l+| * m+l+~.{.{.].].].].{.{.].{.{.].].n+n+l+l+* * l+n+",
"p+1 1 n+n+n+2 2 2 2 p+n+| n+1 ].3 3 ].3 3 3 ].].{.{.{.].].{.{.].].].3 D.n+m+* * | p+~.{.].].{.{.{.{.{.{.{.{.].].{.D.l+1 | * n+2 ",
"].].].].].{.].].].].].].].].].].].].].].3 ].].].{.].{.].].].].].].].].].D.D.2 2 2 D.{.].].{.{.{.{.{.{.{.{.{.].].{.].{.].D.o+].3 ",
"].].].].].].].].].].].].].].].].].].].].].].].].{.{.{.].].].].].].].].].].].3 3 ].].{.].].{.{.{.].].].].].].].].{.].].].{.{.].3 ",
"{.].].{.].{.].].].].].].].].].{.].].].].o+{.~.~.{.].].].p+D.].3 ].{.{.{.{.].].{.{.].].].].].].].].1 1 n+p+1 D.].].{.{.{.{.{.].3 ",
"1 1 1 n+2 p+1 1 p+p+n+| 2 ].{.{.{.{.].D.n+n+| | p+2 2 p+| n+n+2 2 {.~.{.{.{.{.{.{.{.].{.].].].].1 p+1 1 n+| 1 n+l+1 {.~.n+1 ].o+",
"n+n+n+n+n+l+1 n+n+n+n+l+1 ].].].].{.p+p+l+* | l+p+2 p+1 l+* l+2 D.D.{.{.{.{.{.{.{.{.{.{.].].D.1 * 1 1 n+* m+n+| 1 1 1 1 | 1 2 p+",
"p+1 1 p+n+n+n+n+1 p+* n+1 ].].].{.{.| 1 | n+l+* 1 p+| | p+| 1 ].].].{.{.~.{.{.{.{.{.{.{.].D.D.l+m+n+1 | l+l+n+1 n+1 1 p+l+p+2 1 ",
"n+n+n+1 1 | l+| p+1 | | o+].].{.1 n+n+| l+| l+* | * n+| l+n+D.].].].{.{.{.~.~.{.{.{.{.].].o+| m+| | l+| * * | | | | n+| l+1 2 1 ",
"l+l+* n+l+* l+| 1 n+* | ~.].].~.1 1 l+* * l+l+* l+l+l+m+| l+o+{.{.].{.{.{.{.{.{.].{.{.].].p+| l+| | | * m+m+* | | n+n+| | 1 p+| ",
"n+| m+m+* m+l+l+l+l+m+m+l+~.{.1 1 n+l+m+* | * * m+* l+l+n+p+].{.{.].].{.].].].].].{.{.].].p+p+1 n+n+l+| | l+p+D.o+D.o+p+o+D.].].",
"o+1 n+!.!.n+o+p+p+p+n+l+n+].].o+D.o+D.o+{.{.~.p+~.~.~.o+D.].].].].].].].].].].{.{.{.].].].].].].].{.].].{.{.].].].].].{.{.].].].",
"].].{.{.{.].].].].].{.].].].].].].].3 3 ].].].].].{.{.].3 3 ].].].].].].].].].].].].].].].].].].].].].].].].].].3 ].].{.].].].]."};
